<?xml version="1.0" standalone="no"?>
<!DOCTYPE svg PUBLIC "-//W3C//DTD SVG 20010904//EN"
 "http://www.w3.org/TR/2001/REC-SVG-20010904/DTD/svg10.dtd">
<svg version="1.0" xmlns="http://www.w3.org/2000/svg"
 width="260.000000pt" height="260.000000pt" viewBox="0 0 260.000000 260.000000"
 preserveAspectRatio="xMidYMid meet">
<metadata>
Created by potrace 1.14, written by Peter Selinger 2001-2017
</metadata>
<g transform="translate(0.000000,260.000000) scale(0.100000,-0.100000)"
fill="#000000" stroke="none">
<path d="M210 2591 c-83 -26 -141 -74 -181 -151 l-24 -45 0 -1095 0 -1095 24
-45 c32 -61 67 -97 126 -128 l50 -27 1095 0 1095 0 50 27 c59 31 94 67 126
128 l24 45 0 1095 0 1095 -24 45 c-32 61 -67 97 -126 128 l-50 27 -1080 2
c-594 1 -1091 -2 -1105 -6z m374 -288 c116 -241 292 -583 302 -583 11 0 254
462 273 521 6 20 26 59 43 85 18 27 32 50 33 51 1 2 31 -13 68 -33 l67 -35
-14 -27 c-8 -15 -47 -92 -87 -172 -39 -80 -77 -152 -84 -160 -7 -8 -60 -107
-117 -220 l-103 -205 4 -413 4 -412 -82 0 -81 0 0 403 0 403 -49 110 c-46 103
-135 275 -258 499 -30 55 -63 121 -73 148 l-18 47 56 34 c32 19 62 35 68 35 6
1 28 -34 48 -76z m1634 -507 l3 -76 -226 0 c-124 0 -225 -3 -225 -7 0 -5 0
-347 -1 -760 l0 -753 -80 0 -79 0 -1 293 c0 160 -1 501 -2 757 l-2 465 -227 3
-228 2 0 74 c0 40 2 75 4 77 2 2 242 4 533 3 l528 -1 3 -77z m-814 -1309 c19
-7 21 -38 4 -55 -9 -9 -137 -12 -514 -12 -276 0 -509 3 -518 6 -20 8 -21 50
-2 61 17 9 1007 9 1030 0z"/>
</g>
</svg>
